<mxfile host="app.diagrams.net" modified="2023-04-03T09:12:36.080Z" agent="Mozilla/5.0 (X11; Linux x86_64) AppleWebKit/537.36 (KHTML, like Gecko) Chrome/111.0.0.0 Safari/537.36" etag="m7SH4KeZirV3BTHNQU8u" version="21.1.3" type="github">
  <diagram name="Page-1" id="cRs1FUvraPR_sSNTea02">
    <mxGraphModel dx="2210" dy="770" grid="1" gridSize="10" guides="1" tooltips="1" connect="1" arrows="1" fold="1" page="1" pageScale="1" pageWidth="850" pageHeight="1100" math="0" shadow="0">
      <root>
        <mxCell id="0" />
        <mxCell id="1" parent="0" />
        <mxCell id="ou1j3uqA0_tTMkgVa4EF-3" value="" style="rounded=0;whiteSpace=wrap;html=1;" vertex="1" parent="1">
          <mxGeometry x="50" y="340" width="265" height="120" as="geometry" />
        </mxCell>
        <mxCell id="ou1j3uqA0_tTMkgVa4EF-5" value="" style="shape=mxgraph.cisco.computers_and_peripherals.pc;html=1;pointerEvents=1;dashed=0;fillColor=#036897;strokeColor=#ffffff;strokeWidth=2;verticalLabelPosition=bottom;verticalAlign=top;align=center;outlineConnect=0;" vertex="1" parent="1">
          <mxGeometry x="70" y="370" width="78" height="70" as="geometry" />
        </mxCell>
        <mxCell id="ou1j3uqA0_tTMkgVa4EF-6" value="" style="verticalLabelPosition=bottom;html=1;verticalAlign=top;align=center;strokeColor=none;fillColor=#00BEF2;shape=mxgraph.azure.mobile;pointerEvents=1;" vertex="1" parent="1">
          <mxGeometry x="220" y="380" width="35" height="50" as="geometry" />
        </mxCell>
        <mxCell id="ou1j3uqA0_tTMkgVa4EF-8" value="&lt;font style=&quot;font-size: 18px;&quot;&gt;Clients&lt;/font&gt;" style="text;html=1;strokeColor=none;fillColor=none;align=center;verticalAlign=middle;whiteSpace=wrap;rounded=0;" vertex="1" parent="1">
          <mxGeometry x="148" y="290" width="60" height="30" as="geometry" />
        </mxCell>
        <mxCell id="ou1j3uqA0_tTMkgVa4EF-10" value="" style="rounded=0;whiteSpace=wrap;html=1;" vertex="1" parent="1">
          <mxGeometry x="50" y="500" width="265" height="120" as="geometry" />
        </mxCell>
        <mxCell id="ou1j3uqA0_tTMkgVa4EF-11" value="" style="rounded=0;whiteSpace=wrap;html=1;" vertex="1" parent="1">
          <mxGeometry x="50" y="660" width="265" height="120" as="geometry" />
        </mxCell>
        <mxCell id="ou1j3uqA0_tTMkgVa4EF-12" value="" style="verticalLabelPosition=bottom;html=1;verticalAlign=top;align=center;strokeColor=none;fillColor=#00BEF2;shape=mxgraph.azure.mobile;pointerEvents=1;" vertex="1" parent="1">
          <mxGeometry x="230" y="540" width="35" height="50" as="geometry" />
        </mxCell>
        <mxCell id="ou1j3uqA0_tTMkgVa4EF-13" value="" style="verticalLabelPosition=bottom;html=1;verticalAlign=top;align=center;strokeColor=none;fillColor=#00BEF2;shape=mxgraph.azure.mobile;pointerEvents=1;" vertex="1" parent="1">
          <mxGeometry x="230" y="690" width="35" height="50" as="geometry" />
        </mxCell>
        <mxCell id="ou1j3uqA0_tTMkgVa4EF-14" value="" style="shape=mxgraph.cisco.computers_and_peripherals.pc;html=1;pointerEvents=1;dashed=0;fillColor=#036897;strokeColor=#ffffff;strokeWidth=2;verticalLabelPosition=bottom;verticalAlign=top;align=center;outlineConnect=0;" vertex="1" parent="1">
          <mxGeometry x="80" y="530" width="78" height="70" as="geometry" />
        </mxCell>
        <mxCell id="ou1j3uqA0_tTMkgVa4EF-15" value="" style="shape=mxgraph.cisco.computers_and_peripherals.pc;html=1;pointerEvents=1;dashed=0;fillColor=#036897;strokeColor=#ffffff;strokeWidth=2;verticalLabelPosition=bottom;verticalAlign=top;align=center;outlineConnect=0;" vertex="1" parent="1">
          <mxGeometry x="80" y="675" width="78" height="70" as="geometry" />
        </mxCell>
        <mxCell id="ou1j3uqA0_tTMkgVa4EF-16" value="&lt;font style=&quot;font-size: 18px;&quot;&gt;Backoffice&lt;/font&gt;" style="text;html=1;strokeColor=none;fillColor=none;align=center;verticalAlign=middle;whiteSpace=wrap;rounded=0;" vertex="1" parent="1">
          <mxGeometry x="148" y="470" width="60" height="30" as="geometry" />
        </mxCell>
        <mxCell id="ou1j3uqA0_tTMkgVa4EF-18" value="&lt;font style=&quot;font-size: 18px;&quot;&gt;Tm&lt;/font&gt;" style="text;html=1;strokeColor=none;fillColor=none;align=center;verticalAlign=middle;whiteSpace=wrap;rounded=0;" vertex="1" parent="1">
          <mxGeometry x="148" y="620" width="60" height="30" as="geometry" />
        </mxCell>
        <mxCell id="ou1j3uqA0_tTMkgVa4EF-19" value="" style="rounded=0;whiteSpace=wrap;html=1;" vertex="1" parent="1">
          <mxGeometry x="50" y="820" width="265" height="120" as="geometry" />
        </mxCell>
        <mxCell id="ou1j3uqA0_tTMkgVa4EF-21" value="" style="verticalLabelPosition=bottom;html=1;verticalAlign=top;align=center;strokeColor=none;fillColor=#00BEF2;shape=mxgraph.azure.mobile;pointerEvents=1;" vertex="1" parent="1">
          <mxGeometry x="240" y="855" width="35" height="50" as="geometry" />
        </mxCell>
        <mxCell id="ou1j3uqA0_tTMkgVa4EF-22" value="" style="shape=mxgraph.cisco.computers_and_peripherals.pc;html=1;pointerEvents=1;dashed=0;fillColor=#036897;strokeColor=#ffffff;strokeWidth=2;verticalLabelPosition=bottom;verticalAlign=top;align=center;outlineConnect=0;" vertex="1" parent="1">
          <mxGeometry x="80" y="845" width="78" height="70" as="geometry" />
        </mxCell>
        <mxCell id="ou1j3uqA0_tTMkgVa4EF-26" value="&lt;span style=&quot;font-size: 18px;&quot;&gt;Approvers&lt;/span&gt;" style="text;html=1;strokeColor=none;fillColor=none;align=center;verticalAlign=middle;whiteSpace=wrap;rounded=0;" vertex="1" parent="1">
          <mxGeometry x="148" y="780" width="60" height="30" as="geometry" />
        </mxCell>
        <mxCell id="ou1j3uqA0_tTMkgVa4EF-27" value="" style="rounded=0;whiteSpace=wrap;html=1;" vertex="1" parent="1">
          <mxGeometry x="50" y="980" width="265" height="120" as="geometry" />
        </mxCell>
        <mxCell id="ou1j3uqA0_tTMkgVa4EF-28" value="" style="shape=mxgraph.cisco.computers_and_peripherals.pc;html=1;pointerEvents=1;dashed=0;fillColor=#036897;strokeColor=#ffffff;strokeWidth=2;verticalLabelPosition=bottom;verticalAlign=top;align=center;outlineConnect=0;" vertex="1" parent="1">
          <mxGeometry x="80" y="1005" width="78" height="70" as="geometry" />
        </mxCell>
        <mxCell id="ou1j3uqA0_tTMkgVa4EF-29" value="" style="verticalLabelPosition=bottom;html=1;verticalAlign=top;align=center;strokeColor=none;fillColor=#00BEF2;shape=mxgraph.azure.mobile;pointerEvents=1;" vertex="1" parent="1">
          <mxGeometry x="240" y="1015" width="35" height="50" as="geometry" />
        </mxCell>
        <mxCell id="ou1j3uqA0_tTMkgVa4EF-30" value="&lt;span style=&quot;font-size: 18px;&quot;&gt;Clients&lt;br&gt;&lt;/span&gt;" style="text;html=1;strokeColor=none;fillColor=none;align=center;verticalAlign=middle;whiteSpace=wrap;rounded=0;" vertex="1" parent="1">
          <mxGeometry x="152.5" y="940" width="60" height="30" as="geometry" />
        </mxCell>
        <mxCell id="ou1j3uqA0_tTMkgVa4EF-31" value="" style="rounded=0;whiteSpace=wrap;html=1;" vertex="1" parent="1">
          <mxGeometry x="50" y="1150" width="265" height="120" as="geometry" />
        </mxCell>
        <mxCell id="ou1j3uqA0_tTMkgVa4EF-32" value="&lt;span style=&quot;font-size: 18px;&quot;&gt;Analytics&lt;br&gt;&lt;/span&gt;" style="text;html=1;strokeColor=none;fillColor=none;align=center;verticalAlign=middle;whiteSpace=wrap;rounded=0;" vertex="1" parent="1">
          <mxGeometry x="140" y="1110" width="60" height="30" as="geometry" />
        </mxCell>
        <mxCell id="ou1j3uqA0_tTMkgVa4EF-33" value="" style="verticalLabelPosition=bottom;html=1;verticalAlign=top;align=center;strokeColor=none;fillColor=#00BEF2;shape=mxgraph.azure.mobile;pointerEvents=1;" vertex="1" parent="1">
          <mxGeometry x="240" y="1185" width="35" height="50" as="geometry" />
        </mxCell>
        <mxCell id="ou1j3uqA0_tTMkgVa4EF-34" value="" style="shape=mxgraph.cisco.computers_and_peripherals.pc;html=1;pointerEvents=1;dashed=0;fillColor=#036897;strokeColor=#ffffff;strokeWidth=2;verticalLabelPosition=bottom;verticalAlign=top;align=center;outlineConnect=0;" vertex="1" parent="1">
          <mxGeometry x="75" y="1175" width="78" height="70" as="geometry" />
        </mxCell>
        <mxCell id="ou1j3uqA0_tTMkgVa4EF-42" value="" style="shape=flexArrow;endArrow=classic;html=1;rounded=0;exitX=0;exitY=0.5;exitDx=0;exitDy=0;" edge="1" parent="1" source="ou1j3uqA0_tTMkgVa4EF-3">
          <mxGeometry width="50" height="50" relative="1" as="geometry">
            <mxPoint x="-200" y="820" as="sourcePoint" />
            <mxPoint x="-400" y="720" as="targetPoint" />
          </mxGeometry>
        </mxCell>
        <mxCell id="ou1j3uqA0_tTMkgVa4EF-43" value="" style="shape=flexArrow;endArrow=classic;html=1;rounded=0;exitX=0;exitY=0.5;exitDx=0;exitDy=0;" edge="1" parent="1" source="ou1j3uqA0_tTMkgVa4EF-10">
          <mxGeometry width="50" height="50" relative="1" as="geometry">
            <mxPoint x="60" y="410" as="sourcePoint" />
            <mxPoint x="-390" y="730" as="targetPoint" />
          </mxGeometry>
        </mxCell>
        <mxCell id="ou1j3uqA0_tTMkgVa4EF-44" value="" style="shape=flexArrow;endArrow=classic;html=1;rounded=0;exitX=0;exitY=0.5;exitDx=0;exitDy=0;" edge="1" parent="1" source="ou1j3uqA0_tTMkgVa4EF-11">
          <mxGeometry width="50" height="50" relative="1" as="geometry">
            <mxPoint x="60" y="570" as="sourcePoint" />
            <mxPoint x="-380" y="740" as="targetPoint" />
          </mxGeometry>
        </mxCell>
        <mxCell id="ou1j3uqA0_tTMkgVa4EF-45" value="" style="shape=flexArrow;endArrow=classic;html=1;rounded=0;exitX=0;exitY=0.5;exitDx=0;exitDy=0;" edge="1" parent="1" source="ou1j3uqA0_tTMkgVa4EF-19">
          <mxGeometry width="50" height="50" relative="1" as="geometry">
            <mxPoint x="70" y="580" as="sourcePoint" />
            <mxPoint x="-370" y="750" as="targetPoint" />
          </mxGeometry>
        </mxCell>
        <mxCell id="ou1j3uqA0_tTMkgVa4EF-46" value="" style="shape=flexArrow;endArrow=classic;html=1;rounded=0;exitX=0;exitY=0.5;exitDx=0;exitDy=0;" edge="1" parent="1" source="ou1j3uqA0_tTMkgVa4EF-27">
          <mxGeometry width="50" height="50" relative="1" as="geometry">
            <mxPoint x="80" y="590" as="sourcePoint" />
            <mxPoint x="-360" y="760" as="targetPoint" />
          </mxGeometry>
        </mxCell>
        <mxCell id="ou1j3uqA0_tTMkgVa4EF-47" value="&lt;font style=&quot;font-size: 24px;&quot;&gt;UI&lt;/font&gt;" style="text;html=1;strokeColor=none;fillColor=none;align=center;verticalAlign=middle;whiteSpace=wrap;rounded=0;" vertex="1" parent="1">
          <mxGeometry x="-480" y="720" width="60" height="30" as="geometry" />
        </mxCell>
      </root>
    </mxGraphModel>
  </diagram>
</mxfile>
